<?xml version="1.0" standalone="no"?>
<!DOCTYPE svg PUBLIC "-//W3C//DTD SVG 20010904//EN"
 "http://www.w3.org/TR/2001/REC-SVG-20010904/DTD/svg10.dtd">
<svg version="1.0" xmlns="http://www.w3.org/2000/svg"
 width="500.000000pt" height="500.000000pt" viewBox="0 0 500.000000 500.000000"
 preserveAspectRatio="xMidYMid meet">
<metadata>
Created by potrace 1.14, written by Peter Selinger 2001-2017
</metadata>
<g transform="translate(0.000000,500.000000) scale(0.100000,-0.100000)"
fill="#000000" stroke="none">
<path d="M2305 4994 c-16 -2 -73 -9 -125 -15 -325 -37 -701 -167 -990 -343
-316 -193 -620 -492 -817 -804 -74 -117 -166 -302 -220 -442 -53 -137 -115
-373 -137 -523 -22 -147 -22 -586 -1 -729 64 -424 226 -810 486 -1154 128
-170 345 -382 513 -502 72 -52 54 -31 -26 31 -40 31 -86 66 -102 79 l-29 24
202 303 c112 167 200 305 197 308 -3 3 -27 9 -53 14 -128 24 -267 127 -330
245 -66 124 -64 80 -61 1282 l3 1087 24 60 c53 133 152 236 278 287 l58 23
930 0 930 0 78 -37 c134 -64 225 -174 262 -315 23 -87 22 -2180 0 -2268 -47
-181 -194 -322 -374 -358 l-60 -12 321 -485 c176 -267 322 -487 325 -490 6 -6
194 90 258 132 l50 33 3 462 2 463 -202 2 -203 3 -3 188 -2 187 145 0 145 0 0
245 c0 143 -4 245 -9 245 -5 0 -23 12 -40 26 l-31 26 0 309 c0 336 0 338 57
390 48 45 65 49 215 49 130 0 147 -2 183 -23 24 -14 50 -40 65 -67 l25 -45 0
-301 c0 -288 -1 -303 -20 -324 -11 -12 -30 -26 -42 -31 -23 -8 -23 -9 -23
-249 l0 -240 125 0 125 0 0 175 0 175 -25 10 c-14 5 -30 21 -35 35 -6 15 -10
121 -10 236 0 232 5 256 59 302 31 26 37 27 148 27 98 0 120 -3 148 -20 60
-37 65 -62 65 -314 l0 -227 -25 -24 c-13 -14 -29 -25 -35 -25 -6 0 -10 -60
-10 -174 l0 -174 85 -7 c97 -8 110 -5 117 27 3 13 17 68 32 123 57 214 70 327
71 610 0 205 -4 283 -18 370 -94 571 -336 1040 -738 1430 -381 370 -853 600
-1394 681 -95 14 -476 27 -540 18z m1726 -1545 c51 -17 105 -74 119 -125 46
-164 -136 -295 -279 -201 -114 75 -102 255 21 316 48 24 89 26 139 10z m590
-434 c65 -34 90 -135 50 -201 -50 -82 -183 -82 -237 1 -76 117 62 264 187 200z"/>
<path d="M1325 3921 c-46 -11 -87 -36 -122 -73 -63 -65 -63 -69 -63 -485 0
-377 0 -378 24 -429 13 -28 39 -63 58 -77 77 -59 39 -57 875 -57 511 0 781 4
806 11 47 13 111 69 140 123 21 40 22 53 25 404 3 423 1 444 -73 517 -77 78
-48 75 -894 74 -410 -1 -759 -4 -776 -8z"/>
<path d="M1270 1959 c-89 -40 -138 -111 -147 -211 -20 -214 226 -346 399 -215
188 144 85 447 -152 447 -34 0 -72 -8 -100 -21z"/>
<path d="M2746 1965 c-99 -35 -161 -126 -161 -235 1 -143 110 -250 254 -250
88 0 191 70 225 152 20 46 21 148 2 192 -50 120 -197 185 -320 141z"/>
<path d="M1346 778 c-29 -46 -65 -102 -79 -125 l-27 -43 860 0 c473 0 860 3
860 6 0 3 -37 59 -82 125 l-82 119 -698 0 -698 0 -54 -82z"/>
<path d="M1074 441 c7 -11 46 -35 46 -28 0 3 -12 12 -26 22 -15 9 -23 12 -20
6z"/>
<path d="M1372 265 c510 -261 1141 -332 1703 -194 44 11 117 31 163 45 l83 25
-77 84 -76 85 -942 -1 -941 0 87 -44z"/>
</g>
</svg>
