<svg id="Layer_1" class="logo-icon" data-name="Layer 1" xmlns="http://www.w3.org/2000/svg" viewBox="0 0 30.8 30.8">
<path class="circle" d="M15.4,0a15.4,15.4,0,1,0,5,29.94,14.1,14.1,0,0,0,1.66-.68A15,15,0,0,0,24,28.19a15.46,15.46,0,0,0,6.08-8.09,15.21,15.21,0,0,0,.74-4.7A15.4,15.4,0,0,0,15.4,0Z" style="fill:#785ca2"/>
<path class="icon" d="M24.49,9.49a1.14,1.14,0,1,1-1.15,1.14,1.14,1.14,0,0,1,1.15-1.14" style="fill:#fff"/>
<path class="icon" d="M28.05,12.12a.87.87,0,1,1-.87.87.87.87,0,0,1,.87-.87" style="fill:#fff"/>
<path class="icon" d="M20.89,20.28V7.66A2.94,2.94,0,0,0,18,4.72h-10A2.94,2.94,0,0,0,5,7.66V20.28a3,3,0,0,0,2.82,2.93L5.29,27A15.44,15.44,0,0,0,8,28.91H19.52l.93,1a14.1,14.1,0,0,0,1.66-.68l-4-6.05A3,3,0,0,0,20.89,20.28Zm-3.41,1.41A1.55,1.55,0,1,1,19,20.15,1.54,1.54,0,0,1,17.48,21.69ZM7,8.09A1.49,1.49,0,0,1,8.49,6.61h8.94A1.48,1.48,0,0,1,18.9,8.09v4a1.47,1.47,0,0,1-1.47,1.47H8.49A1.48,1.48,0,0,1,7,12.12ZM6.89,20.15a1.55,1.55,0,1,1,1.55,1.54A1.54,1.54,0,0,1,6.89,20.15Zm11.4,6.9H7.63l1-1.57h8.58Z" style="fill:#fff"/>
<path class="icon" d="M28.92,20.1V17.92a.44.44,0,0,0,.4-.43V15a.87.87,0,0,0-.86-.86h-.85a.86.86,0,0,0-.86.86v2.47a.43.43,0,0,0,.39.43V20.1h-1.5v-3a.57.57,0,0,0,.51-.57V13.31A1.13,1.13,0,0,0,25,12.17H23.9a1.14,1.14,0,0,0-1.13,1.14v3.25a.58.58,0,0,0,.52.57v3H21.53v2.35H24v5.74a15.46,15.46,0,0,0,6.08-8.09Z" style="fill:#fff"/>
</svg>